name rise45.9887peak57.8056fall74.9286.mot
datacolumns 19
datarows 20
range 2.06666100000000 2.09832800000000
endheader
time	ground_force1_vx	ground_force1_vy	ground_force1_vz	ground_force1_px	ground_force1_py	ground_force1_pz	ground_force2_vx	ground_force2_vy	ground_force2_vz	ground_force2_px	ground_force2_py	ground_force2_pz	ground_torque1_x	ground_torque1_y	ground_torque1_z	ground_torque2_x	ground_torque2_y	ground_torque2_z	
2.06666100000000	-3.77696100000000	40.70062900000000	-7.40063800000000	0.33053000000000	0.00000000000000	0.09010300000000	-58.50655300000000	823.05544299999997	-48.27931600000000	0.13580200000000	0.00000000000000	-0.08384000000000	0.00000000000000	-5.17088000000000	0.00000000000000	0.00000000000000	-20.14156400000000	0.00000000000000	
2.06833000000000	-4.10897200000000	47.50873200000000	-8.34901900000000	0.33499900000000	0.00000000000000	0.09062300000000	-59.35962900000000	821.29256699999996	-47.83350800000000	0.13486600000000	0.00000000000000	-0.08372400000000	0.00000000000000	-5.88984400000000	0.00000000000000	0.00000000000000	-20.10847100000000	0.00000000000000	
2.06999400000000	-4.35736100000000	54.35121700000000	-9.22039800000000	0.33919600000000	0.00000000000000	0.09109000000000	-60.22407700000000	819.37328100000002	-47.36367500000000	0.13394300000000	0.00000000000000	-0.08360400000000	0.00000000000000	-6.56693200000000	0.00000000000000	0.00000000000000	-20.07536900000000	0.00000000000000	
2.07166600000000	-4.51044100000000	61.13593600000000	-9.99518600000000	0.34315200000000	0.00000000000000	0.09151500000000	-61.09887800000000	817.29277600000000	-46.86975700000000	0.13303400000000	0.00000000000000	-0.08348000000000	0.00000000000000	-7.18742500000000	0.00000000000000	0.00000000000000	-20.04215700000000	0.00000000000000	
2.07332700000000	-4.56086700000000	67.79455799999999	-10.66017200000000	0.34689000000000	0.00000000000000	0.09190200000000	-61.98291500000000	815.04625599999997	-46.35172800000000	0.13213800000000	0.00000000000000	-0.08335100000000	0.00000000000000	-7.74087600000000	0.00000000000000	0.00000000000000	-20.00871500000000	0.00000000000000	
2.07500000000000	-4.50559300000000	74.28451800000001	-11.20863900000000	0.35043300000000	0.00000000000000	0.09225800000000	-62.87496900000000	812.62895900000001	-45.80959200000000	0.13125600000000	0.00000000000000	-0.08321900000000	0.00000000000000	-8.22131600000000	0.00000000000000	0.00000000000000	-19.97490800000000	0.00000000000000	
2.07665700000000	-4.34548000000000	80.58853000000001	-11.63992700000000	0.35379500000000	0.00000000000000	0.09258800000000	-63.77372100000000	810.03616699999998	-45.24339000000000	0.13038900000000	0.00000000000000	-0.08308200000000	0.00000000000000	-8.62706800000000	0.00000000000000	0.00000000000000	-19.94058400000000	0.00000000000000	
2.07833000000000	-4.08467200000000	86.71210499999999	-11.95858700000000	0.35699100000000	0.00000000000000	0.09289400000000	-64.67775300000000	807.26322100000004	-44.65319700000000	0.12953600000000	0.00000000000000	-0.08294200000000	0.00000000000000	-8.96022700000000	0.00000000000000	0.00000000000000	-19.90557300000000	0.00000000000000	
2.07999600000000	-3.72980200000000	92.67962500000000	-12.17323700000000	0.36003200000000	0.00000000000000	0.09318000000000	-65.58554900000000	804.30553699999996	-44.03913000000000	0.12870000000000	0.00000000000000	-0.08279700000000	0.00000000000000	-9.22593000000000	0.00000000000000	0.00000000000000	-19.86969300000000	0.00000000000000	
2.08165800000000	-3.28914300000000	98.52955400000000	-12.29529800000000	0.36292900000000	0.00000000000000	0.09344900000000	-66.49549300000000	801.15862300000003	-43.40134200000000	0.12787800000000	0.00000000000000	-0.08264800000000	0.00000000000000	-9.43148600000000	0.00000000000000	0.00000000000000	-19.83274300000000	0.00000000000000	
2.08332400000000	-2.77178300000000	104.30932500000000	-12.33771400000000	0.36568800000000	0.00000000000000	0.09370300000000	-67.40587400000000	797.81809499999997	-42.74003000000000	0.12707300000000	0.00000000000000	-0.08249500000000	0.00000000000000	-9.58548600000000	0.00000000000000	0.00000000000000	-19.79450900000000	0.00000000000000	
2.08499700000000	-2.18687400000000	110.07038700000000	-12.31377400000000	0.36831600000000	0.00000000000000	0.09394400000000	-68.31488899999999	794.27969299999995	-42.05543500000000	0.12628300000000	0.00000000000000	-0.08233900000000	0.00000000000000	-9.69695600000000	0.00000000000000	0.00000000000000	-19.75476400000000	0.00000000000000	
2.08665900000000	-1.54301300000000	115.86376400000000	-12.23610600000000	0.37082000000000	0.00000000000000	0.09417300000000	-69.22064200000000	790.53930000000003	-41.34784300000000	0.12551000000000	0.00000000000000	-0.08217800000000	0.00000000000000	-9.77461600000000	0.00000000000000	0.00000000000000	-19.71326500000000	0.00000000000000	
2.08833000000000	-0.84778500000000	121.73640300000000	-12.11589600000000	0.37320500000000	0.00000000000000	0.09439300000000	-70.12115200000000	786.59295999999995	-40.61758400000000	0.12475200000000	0.00000000000000	-0.08201300000000	0.00000000000000	-9.82628600000000	0.00000000000000	0.00000000000000	-19.66976100000000	0.00000000000000	
2.08999900000000	-0.10745800000000	127.72844200000000	-11.96235200000000	0.37547400000000	0.00000000000000	0.09460400000000	-71.01435100000000	782.43690000000004	-39.86504000000000	0.12401000000000	0.00000000000000	-0.08184500000000	0.00000000000000	-9.85847100000000	0.00000000000000	0.00000000000000	-19.62398500000000	0.00000000000000	
2.09166300000000	0.67315900000000	133.87145100000001	-11.78241900000000	0.37763200000000	0.00000000000000	0.09480700000000	-71.89809400000000	778.06754599999999	-39.09063800000000	0.12328400000000	0.00000000000000	-0.08167300000000	0.00000000000000	-9.87610800000000	0.00000000000000	0.00000000000000	-19.57566200000000	0.00000000000000	
2.09332700000000	1.49071000000000	140.18760300000000	-11.58070100000000	0.37968100000000	0.00000000000000	0.09500300000000	-72.77016000000000	773.48154499999998	-38.29486000000000	0.12257300000000	0.00000000000000	-0.08149700000000	0.00000000000000	-9.88248600000000	0.00000000000000	0.00000000000000	-19.52450900000000	0.00000000000000	
2.09499200000000	2.34318400000000	146.68966599999999	-11.35958400000000	0.38162500000000	0.00000000000000	0.09519400000000	-73.62825800000000	768.67578400000002	-37.47823500000000	0.12187700000000	0.00000000000000	-0.08131700000000	0.00000000000000	-9.87929400000000	0.00000000000000	0.00000000000000	-19.47023300000000	0.00000000000000	
2.09665800000000	3.22971200000000	153.38167400000000	-11.11949700000000	0.38346600000000	0.00000000000000	0.09537900000000	-74.47003300000000	763.64741300000003	-36.64134400000000	0.12119700000000	0.00000000000000	-0.08113400000000	0.00000000000000	-9.86679300000000	0.00000000000000	0.00000000000000	-19.41253500000000	0.00000000000000	
2.09832800000000	4.15031300000000	160.26008800000000	-10.85927400000000	0.38520500000000	0.00000000000000	0.09556000000000	-75.29307100000000	758.39386300000001	-35.78482400000000	0.12053000000000	0.00000000000000	-0.08094700000000	0.00000000000000	-9.84405700000000	0.00000000000000	0.00000000000000	-19.35110900000000	0.00000000000000	
